<svg id="레이어_1" data-name="레이어 1" xmlns="http://www.w3.org/2000/svg" viewBox="0 0 841.89 595.28"><defs><style>.cls-1{fill:#ab95c6;}</style></defs><title>문자</title><path class="cls-1" d="M427.21,362.66l222.19-218A19.38,19.38,0,0,0,638.11,141H216.31A19.35,19.35,0,0,0,205,144.63Z"/><path class="cls-1" d="M496.93,311.06l-69.72,68.41-65.49-64.26-162,152.44a19.42,19.42,0,0,0,16.55,9.25h421.8a19.47,19.47,0,0,0,17.81-11.61Z"/><path class="cls-1" d="M656.6,154.38,505.49,302.65l152.1,147.53V160.48A19.54,19.54,0,0,0,656.6,154.38Z"/><path class="cls-1" d="M353.15,306.79,197.83,154.38a19.25,19.25,0,0,0-1,6.1V453.93Z"/></svg>