<svg id="레이어_1" data-name="레이어 1" xmlns="http://www.w3.org/2000/svg" viewBox="0 0 841.89 595.28"><defs><style>.cls-1{fill:#ab95c6;}.cls-2{fill:#fff;}</style></defs><title>전화</title><path class="cls-1" d="M545.07,61.55,278.5,61.31a12,12,0,0,0-12,12l-.4,456.33a12,12,0,0,0,12,12l266.57.23a12,12,0,0,0,12-12l.4-456.33A12,12,0,0,0,545.07,61.55Zm-133.69,466a23.76,23.76,0,1,1,23.78-23.74A23.76,23.76,0,0,1,411.38,527.58Zm124-71.69a10.83,10.83,0,0,1-10.85,10.83l-228.81-.2a10.84,10.84,0,0,1-10.83-10.85l.29-324.79A10.84,10.84,0,0,1,296,120.05l228.81.21a10.84,10.84,0,0,1,10.83,10.85Z"/><rect class="cls-2" x="378.08" y="92.06" width="11.27" height="11.27" rx="5.64" ry="5.64"/><rect class="cls-2" x="395.67" y="92.06" width="61.05" height="11.27" rx="5.64" ry="5.64"/></svg>