<svg width="59" height="35" viewBox="0 0 59 35" fill="none" xmlns="http://www.w3.org/2000/svg">
<path d="M4.02845 9.69C4.02845 10.11 4.09445 10.482 4.22645 10.806C4.37045 11.118 4.55645 11.382 4.78445 11.598C5.02445 11.802 5.29445 11.958 5.59445 12.066C5.89445 12.174 6.20645 12.228 6.53045 12.228C6.95045 12.228 7.31045 12.198 7.61045 12.138C7.92245 12.078 8.19845 11.994 8.43845 11.886C8.57045 11.826 8.71445 11.754 8.87045 11.67C9.03845 11.586 9.20645 11.532 9.37445 11.508C9.69845 11.448 9.99245 11.472 10.2565 11.58C10.5205 11.688 10.7425 11.892 10.9225 12.192C11.1505 12.564 11.2045 12.936 11.0845 13.308C10.9765 13.68 10.7665 13.992 10.4545 14.244C9.95045 14.652 9.34445 14.946 8.63645 15.126C7.92845 15.318 7.22645 15.414 6.53045 15.414C5.75045 15.414 4.98845 15.312 4.24445 15.108C3.50045 14.904 2.83445 14.58 2.24645 14.136C1.67045 13.68 1.20245 13.104 0.842453 12.408C0.494453 11.7 0.320453 10.848 0.320453 9.852V6.108C0.320453 5.112 0.494453 4.266 0.842453 3.57C1.20245 2.862 1.67045 2.286 2.24645 1.842C2.83445 1.386 3.50045 1.056 4.24445 0.852C4.98845 0.648 5.75045 0.545999 6.53045 0.545999C7.33445 0.545999 8.03645 0.629999 8.63645 0.797999C9.24845 0.965999 9.72845 1.176 10.0765 1.428C10.4485 1.692 10.7065 2.022 10.8505 2.418C10.9945 2.802 10.9585 3.186 10.7425 3.57C10.5625 3.882 10.3225 4.104 10.0225 4.236C9.72245 4.368 9.41645 4.404 9.10445 4.344C8.90045 4.308 8.71445 4.254 8.54645 4.182C8.39045 4.098 8.24645 4.026 8.11445 3.966C7.89845 3.882 7.67045 3.822 7.43045 3.786C7.20245 3.75 6.90245 3.732 6.53045 3.732C6.20645 3.732 5.89445 3.786 5.59445 3.894C5.29445 4.002 5.02445 4.164 4.78445 4.38C4.55645 4.584 4.37045 4.848 4.22645 5.172C4.09445 5.484 4.02845 5.85 4.02845 6.27V9.69ZM12.379 6.018C12.379 4.986 12.565 4.122 12.937 3.426C13.309 2.718 13.789 2.154 14.377 1.734C14.965 1.302 15.613 0.995999 16.321 0.815999C17.041 0.623999 17.737 0.528 18.409 0.528C19.069 0.528 19.753 0.623999 20.461 0.815999C21.181 0.995999 21.835 1.302 22.423 1.734C23.011 2.154 23.491 2.718 23.863 3.426C24.247 4.122 24.439 4.986 24.439 6.018V9.96C24.439 10.992 24.247 11.862 23.863 12.57C23.491 13.266 23.011 13.83 22.423 14.262C21.835 14.682 21.181 14.982 20.461 15.162C19.753 15.354 19.069 15.45 18.409 15.45C17.749 15.45 17.059 15.354 16.339 15.162C15.631 14.982 14.983 14.682 14.395 14.262C13.807 13.83 13.321 13.266 12.937 12.57C12.565 11.862 12.379 10.992 12.379 9.96V6.018ZM20.767 5.91C20.767 5.514 20.695 5.172 20.551 4.884C20.419 4.596 20.239 4.356 20.011 4.164C19.783 3.972 19.531 3.834 19.255 3.75C18.979 3.654 18.697 3.606 18.409 3.606C18.121 3.606 17.839 3.654 17.563 3.75C17.287 3.834 17.035 3.972 16.807 4.164C16.579 4.356 16.393 4.596 16.249 4.884C16.117 5.172 16.051 5.514 16.051 5.91V10.068C16.051 10.428 16.123 10.752 16.267 11.04C16.423 11.328 16.615 11.574 16.843 11.778C17.071 11.97 17.323 12.12 17.599 12.228C17.887 12.324 18.157 12.372 18.409 12.372C18.661 12.372 18.925 12.324 19.201 12.228C19.489 12.12 19.747 11.97 19.975 11.778C20.203 11.574 20.389 11.328 20.533 11.04C20.689 10.752 20.767 10.428 20.767 10.068V5.91ZM33.6216 14.46C33.4536 14.46 33.2676 14.442 33.0636 14.406C32.8596 14.37 32.6616 14.316 32.4696 14.244C32.2776 14.172 32.1096 14.082 31.9656 13.974C31.8336 13.866 31.7436 13.734 31.6956 13.578L29.8776 7.008L29.0496 15.108H25.6476L27.1596 2.382C27.1836 2.106 27.2556 1.86 27.3756 1.644C27.5076 1.428 27.6636 1.248 27.8436 1.104C28.0236 0.948 28.2156 0.827999 28.4196 0.743999C28.6356 0.659999 28.8456 0.605999 29.0496 0.581999C29.2656 0.569999 29.4936 0.581999 29.7336 0.618C29.9856 0.653999 30.2196 0.731999 30.4356 0.852C30.6636 0.96 30.8676 1.116 31.0476 1.32C31.2276 1.512 31.3596 1.758 31.4436 2.058L33.6216 10.302L35.7996 2.058C35.8836 1.758 36.0096 1.512 36.1776 1.32C36.3576 1.116 36.5616 0.96 36.7896 0.852C37.0176 0.731999 37.2516 0.653999 37.4916 0.618C37.7436 0.581999 37.9776 0.569999 38.1936 0.581999C38.3976 0.605999 38.6016 0.659999 38.8056 0.743999C39.0216 0.827999 39.2196 0.948 39.3996 1.104C39.5796 1.248 39.7296 1.428 39.8496 1.644C39.9816 1.86 40.0596 2.106 40.0836 2.382L41.5956 15.108H38.1936L37.3836 6.954L35.5476 13.578C35.4996 13.734 35.4036 13.866 35.2596 13.974C35.1276 14.082 34.9656 14.172 34.7736 14.244C34.5816 14.316 34.3836 14.37 34.1796 14.406C33.9756 14.442 33.7896 14.46 33.6216 14.46ZM50.8306 14.46C50.6626 14.46 50.4766 14.442 50.2726 14.406C50.0686 14.37 49.8706 14.316 49.6786 14.244C49.4866 14.172 49.3186 14.082 49.1746 13.974C49.0426 13.866 48.9526 13.734 48.9046 13.578L47.0866 7.008L46.2586 15.108H42.8566L44.3686 2.382C44.3926 2.106 44.4646 1.86 44.5846 1.644C44.7166 1.428 44.8726 1.248 45.0526 1.104C45.2326 0.948 45.4246 0.827999 45.6286 0.743999C45.8446 0.659999 46.0546 0.605999 46.2586 0.581999C46.4746 0.569999 46.7026 0.581999 46.9426 0.618C47.1946 0.653999 47.4286 0.731999 47.6446 0.852C47.8726 0.96 48.0766 1.116 48.2566 1.32C48.4366 1.512 48.5686 1.758 48.6526 2.058L50.8306 10.302L53.0086 2.058C53.0926 1.758 53.2186 1.512 53.3866 1.32C53.5666 1.116 53.7706 0.96 53.9986 0.852C54.2266 0.731999 54.4606 0.653999 54.7006 0.618C54.9526 0.581999 55.1866 0.569999 55.4026 0.581999C55.6066 0.605999 55.8106 0.659999 56.0146 0.743999C56.2306 0.827999 56.4286 0.948 56.6086 1.104C56.7886 1.248 56.9386 1.428 57.0586 1.644C57.1906 1.86 57.2686 2.106 57.2926 2.382L58.8046 15.108H55.4026L54.5926 6.954L52.7566 13.578C52.7086 13.734 52.6126 13.866 52.4686 13.974C52.3366 14.082 52.1746 14.172 51.9826 14.244C51.7906 14.316 51.5926 14.37 51.3886 14.406C51.1846 14.442 50.9986 14.46 50.8306 14.46ZM9.5174 21.328C9.5174 21.028 9.5654 20.764 9.6614 20.536C9.7694 20.308 9.9074 20.122 10.0754 19.978C10.2434 19.834 10.4354 19.726 10.6514 19.654C10.8794 19.582 11.1194 19.546 11.3714 19.546C11.8754 19.546 12.3074 19.69 12.6674 19.978C13.0394 20.266 13.2254 20.716 13.2254 21.328V29.122C13.2254 30.13 13.0454 30.97 12.6854 31.642C12.3254 32.314 11.8634 32.86 11.2994 33.28C10.7354 33.688 10.1114 33.976 9.4274 34.144C8.7434 34.324 8.0774 34.414 7.4294 34.414C6.7814 34.414 6.1154 34.324 5.4314 34.144C4.7474 33.976 4.1234 33.688 3.5594 33.28C2.9954 32.86 2.5334 32.314 2.1734 31.642C1.8134 30.97 1.6334 30.13 1.6334 29.122V21.328C1.6334 21.028 1.6814 20.764 1.7774 20.536C1.8854 20.308 2.0234 20.122 2.1914 19.978C2.3594 19.834 2.5514 19.726 2.7674 19.654C2.9954 19.582 3.2354 19.546 3.4874 19.546C3.9914 19.546 4.4234 19.69 4.7834 19.978C5.1554 20.266 5.3414 20.716 5.3414 21.328V29.266C5.3414 29.602 5.4014 29.896 5.5214 30.148C5.6534 30.4 5.8214 30.61 6.0254 30.778C6.2294 30.946 6.4514 31.072 6.6914 31.156C6.9434 31.24 7.1894 31.282 7.4294 31.282C7.6694 31.282 7.9094 31.24 8.1494 31.156C8.4014 31.072 8.6294 30.946 8.8334 30.778C9.0374 30.61 9.1994 30.4 9.3194 30.148C9.4514 29.896 9.5174 29.602 9.5174 29.266V21.328ZM23.6139 28.438V21.256C23.6139 20.704 23.7759 20.284 24.0999 19.996C24.4359 19.696 24.8199 19.546 25.2519 19.546C25.6839 19.546 26.0619 19.696 26.3859 19.996C26.7219 20.284 26.8899 20.704 26.8899 21.256V32.596C26.8899 32.872 26.8359 33.112 26.7279 33.316C26.6199 33.52 26.4819 33.694 26.3139 33.838C26.1459 33.982 25.9539 34.096 25.7379 34.18C25.5339 34.264 25.3299 34.312 25.1259 34.324C24.6939 34.36 24.2499 34.288 23.7939 34.108C23.3379 33.94 22.9959 33.664 22.7679 33.28L18.3759 25.504V34.108H15.0999V21.382C15.0999 21.106 15.1539 20.86 15.2619 20.644C15.3699 20.428 15.5079 20.248 15.6759 20.104C15.8559 19.948 16.0539 19.828 16.2699 19.744C16.4859 19.66 16.6959 19.606 16.8999 19.582C17.3319 19.534 17.7699 19.6 18.2139 19.78C18.6579 19.96 18.9939 20.242 19.2219 20.626L23.6139 28.438ZM28.7744 21.346C28.7744 20.722 28.9604 20.266 29.3324 19.978C29.7044 19.69 30.1424 19.546 30.6464 19.546C31.1504 19.546 31.5884 19.69 31.9604 19.978C32.3324 20.266 32.5184 20.722 32.5184 21.346V34.108H28.7744V21.346ZM37.6407 34.108V22.804H34.8867C34.6227 22.804 34.3947 22.756 34.2027 22.66C34.0227 22.564 33.8727 22.438 33.7527 22.282C33.6447 22.126 33.5607 21.952 33.5007 21.76C33.4527 21.568 33.4287 21.382 33.4287 21.202C33.4287 21.022 33.4527 20.842 33.5007 20.662C33.5607 20.47 33.6447 20.302 33.7527 20.158C33.8727 20.002 34.0227 19.882 34.2027 19.798C34.3947 19.702 34.6227 19.654 34.8867 19.654H44.1387C44.4027 19.654 44.6247 19.702 44.8047 19.798C44.9967 19.882 45.1467 20.002 45.2547 20.158C45.3747 20.302 45.4587 20.47 45.5067 20.662C45.5667 20.842 45.5967 21.022 45.5967 21.202C45.5967 21.382 45.5667 21.568 45.5067 21.76C45.4587 21.952 45.3747 22.126 45.2547 22.282C45.1347 22.438 44.9847 22.564 44.8047 22.66C44.6247 22.756 44.4027 22.804 44.1387 22.804H41.3847V34.108H37.6407ZM53.7648 28.798V34.108H50.0928V28.69L46.0068 22.264C45.8268 21.988 45.7248 21.718 45.7008 21.454C45.6768 21.178 45.7068 20.926 45.7908 20.698C45.8748 20.47 46.0008 20.272 46.1688 20.104C46.3368 19.924 46.5228 19.792 46.7268 19.708C47.3028 19.468 47.8368 19.462 48.3288 19.69C48.8208 19.906 49.2228 20.272 49.5348 20.788L52.0548 24.964L54.4848 20.788C54.6168 20.572 54.7668 20.374 54.9348 20.194C55.1028 20.002 55.2888 19.852 55.4928 19.744C55.7088 19.636 55.9428 19.57 56.1948 19.546C56.4468 19.522 56.7228 19.558 57.0228 19.654C57.2388 19.726 57.4368 19.846 57.6168 20.014C57.8088 20.17 57.9528 20.368 58.0488 20.608C58.1448 20.836 58.1808 21.094 58.1568 21.382C58.1448 21.67 58.0428 21.964 57.8508 22.264L53.7648 28.798Z" fill="#A897C2"/>
</svg>
