<svg width="46" height="27" viewBox="0 0 46 27" fill="none" xmlns="http://www.w3.org/2000/svg">
<path d="M3.1888 7.87C3.1888 8.19667 3.24013 8.486 3.3428 8.738C3.4548 8.98067 3.59946 9.186 3.7768 9.354C3.96346 9.51267 4.17346 9.634 4.4068 9.718C4.64013 9.802 4.8828 9.844 5.1348 9.844C5.46146 9.844 5.74146 9.82067 5.9748 9.774C6.21746 9.72733 6.43213 9.662 6.6188 9.578C6.72146 9.53133 6.83346 9.47533 6.9548 9.41C7.08546 9.34467 7.21613 9.30267 7.3468 9.284C7.5988 9.23733 7.82746 9.256 8.0328 9.34C8.23813 9.424 8.4108 9.58267 8.5508 9.816C8.72813 10.1053 8.77013 10.3947 8.6768 10.684C8.5928 10.9733 8.42946 11.216 8.1868 11.412C7.7948 11.7293 7.32346 11.958 6.7728 12.098C6.22213 12.2473 5.67613 12.322 5.1348 12.322C4.52813 12.322 3.93546 12.2427 3.3568 12.084C2.77813 11.9253 2.26013 11.6733 1.8028 11.328C1.3548 10.9733 0.990797 10.5253 0.710797 9.984C0.44013 9.43333 0.304797 8.77067 0.304797 7.996V5.084C0.304797 4.30933 0.44013 3.65133 0.710797 3.11C0.990797 2.55933 1.3548 2.11133 1.8028 1.766C2.26013 1.41133 2.77813 1.15467 3.3568 0.996C3.93546 0.837333 4.52813 0.758 5.1348 0.758C5.76013 0.758 6.30613 0.823333 6.7728 0.954C7.2488 1.08467 7.62213 1.248 7.8928 1.444C8.18213 1.64933 8.3828 1.906 8.4948 2.214C8.6068 2.51267 8.5788 2.81133 8.4108 3.11C8.2708 3.35267 8.08413 3.52533 7.8508 3.628C7.61746 3.73067 7.37946 3.75867 7.1368 3.712C6.97813 3.684 6.83346 3.642 6.7028 3.586C6.58146 3.52067 6.46946 3.46467 6.3668 3.418C6.1988 3.35267 6.02146 3.306 5.8348 3.278C5.65746 3.25 5.42413 3.236 5.1348 3.236C4.8828 3.236 4.64013 3.278 4.4068 3.362C4.17346 3.446 3.96346 3.572 3.7768 3.74C3.59946 3.89867 3.4548 4.104 3.3428 4.356C3.24013 4.59867 3.1888 4.88333 3.1888 5.21V7.87ZM15.9277 2.144C15.9277 1.91067 15.965 1.70533 16.0397 1.528C16.1237 1.35067 16.231 1.206 16.3617 1.094C16.4924 0.982 16.6417 0.898 16.8097 0.841999C16.987 0.785999 17.1737 0.758 17.3697 0.758C17.7617 0.758 18.0977 0.869999 18.3777 1.094C18.667 1.318 18.8117 1.668 18.8117 2.144V8.206C18.8117 8.99 18.6717 9.64333 18.3917 10.166C18.1117 10.6887 17.7524 11.1133 17.3137 11.44C16.875 11.7573 16.3897 11.9813 15.8577 12.112C15.3257 12.252 14.8077 12.322 14.3037 12.322C13.7997 12.322 13.2817 12.252 12.7497 12.112C12.2177 11.9813 11.7324 11.7573 11.2937 11.44C10.855 11.1133 10.4957 10.6887 10.2157 10.166C9.9357 9.64333 9.7957 8.99 9.7957 8.206V2.144C9.7957 1.91067 9.83304 1.70533 9.9077 1.528C9.9917 1.35067 10.099 1.206 10.2297 1.094C10.3604 0.982 10.5097 0.898 10.6777 0.841999C10.855 0.785999 11.0417 0.758 11.2377 0.758C11.6297 0.758 11.9657 0.869999 12.2457 1.094C12.535 1.318 12.6797 1.668 12.6797 2.144V8.318C12.6797 8.57933 12.7264 8.808 12.8197 9.004C12.9224 9.2 13.053 9.36333 13.2117 9.494C13.3704 9.62467 13.543 9.72267 13.7297 9.788C13.9257 9.85333 14.117 9.886 14.3037 9.886C14.4904 9.886 14.677 9.85333 14.8637 9.788C15.0597 9.72267 15.237 9.62467 15.3957 9.494C15.5544 9.36333 15.6804 9.2 15.7737 9.004C15.8764 8.808 15.9277 8.57933 15.9277 8.318V2.144ZM26.2057 11.58C26.075 11.58 25.9303 11.566 25.7717 11.538C25.613 11.51 25.459 11.468 25.3097 11.412C25.1603 11.356 25.0297 11.286 24.9177 11.202C24.815 11.118 24.745 11.0153 24.7077 10.894L23.2937 5.784L22.6497 12.084H20.0037L21.1797 2.186C21.1983 1.97133 21.2543 1.78 21.3477 1.612C21.4503 1.444 21.5717 1.304 21.7117 1.192C21.8517 1.07067 22.001 0.977333 22.1597 0.911999C22.3277 0.846666 22.491 0.804666 22.6497 0.785999C22.8177 0.776666 22.995 0.785999 23.1817 0.814C23.3777 0.841999 23.5597 0.902666 23.7277 0.996C23.905 1.08 24.0637 1.20133 24.2037 1.36C24.3437 1.50933 24.4463 1.70067 24.5117 1.934L26.2057 8.346L27.8997 1.934C27.965 1.70067 28.063 1.50933 28.1937 1.36C28.3337 1.20133 28.4923 1.08 28.6697 0.996C28.847 0.902666 29.029 0.841999 29.2157 0.814C29.4117 0.785999 29.5937 0.776666 29.7617 0.785999C29.9203 0.804666 30.079 0.846666 30.2377 0.911999C30.4057 0.977333 30.5597 1.07067 30.6997 1.192C30.8397 1.304 30.9563 1.444 31.0497 1.612C31.1523 1.78 31.213 1.97133 31.2317 2.186L32.4077 12.084H29.7617L29.1317 5.742L27.7037 10.894C27.6663 11.0153 27.5917 11.118 27.4797 11.202C27.377 11.286 27.251 11.356 27.1017 11.412C26.9523 11.468 26.7983 11.51 26.6397 11.538C26.481 11.566 26.3363 11.58 26.2057 11.58ZM39.5904 11.58C39.4598 11.58 39.3151 11.566 39.1564 11.538C38.9978 11.51 38.8438 11.468 38.6944 11.412C38.5451 11.356 38.4144 11.286 38.3024 11.202C38.1998 11.118 38.1298 11.0153 38.0924 10.894L36.6784 5.784L36.0344 12.084H33.3884L34.5644 2.186C34.5831 1.97133 34.6391 1.78 34.7324 1.612C34.8351 1.444 34.9564 1.304 35.0964 1.192C35.2364 1.07067 35.3858 0.977333 35.5444 0.911999C35.7124 0.846666 35.8758 0.804666 36.0344 0.785999C36.2024 0.776666 36.3798 0.785999 36.5664 0.814C36.7624 0.841999 36.9444 0.902666 37.1124 0.996C37.2898 1.08 37.4484 1.20133 37.5884 1.36C37.7284 1.50933 37.8311 1.70067 37.8964 1.934L39.5904 8.346L41.2844 1.934C41.3498 1.70067 41.4478 1.50933 41.5784 1.36C41.7184 1.20133 41.8771 1.08 42.0544 0.996C42.2318 0.902666 42.4138 0.841999 42.6004 0.814C42.7964 0.785999 42.9784 0.776666 43.1464 0.785999C43.3051 0.804666 43.4638 0.846666 43.6224 0.911999C43.7904 0.977333 43.9444 1.07067 44.0844 1.192C44.2244 1.304 44.3411 1.444 44.4344 1.612C44.5371 1.78 44.5978 1.97133 44.6164 2.186L45.7924 12.084H43.1464L42.5164 5.742L41.0884 10.894C41.0511 11.0153 40.9764 11.118 40.8644 11.202C40.7618 11.286 40.6358 11.356 40.4864 11.412C40.3371 11.468 40.1831 11.51 40.0244 11.538C39.8658 11.566 39.7211 11.58 39.5904 11.58ZM7.45798 16.144C7.45798 15.9107 7.49531 15.7053 7.56998 15.528C7.65398 15.3507 7.76131 15.206 7.89198 15.094C8.02264 14.982 8.17198 14.898 8.33998 14.842C8.51731 14.786 8.70398 14.758 8.89998 14.758C9.29198 14.758 9.62798 14.87 9.90798 15.094C10.1973 15.318 10.342 15.668 10.342 16.144V22.206C10.342 22.99 10.202 23.6433 9.92198 24.166C9.64198 24.6887 9.28264 25.1133 8.84398 25.44C8.40531 25.7573 7.91998 25.9813 7.38798 26.112C6.85598 26.252 6.33798 26.322 5.83398 26.322C5.32998 26.322 4.81198 26.252 4.27998 26.112C3.74798 25.9813 3.26264 25.7573 2.82398 25.44C2.38531 25.1133 2.02598 24.6887 1.74598 24.166C1.46598 23.6433 1.32598 22.99 1.32598 22.206V16.144C1.32598 15.9107 1.36331 15.7053 1.43798 15.528C1.52198 15.3507 1.62931 15.206 1.75998 15.094C1.89064 14.982 2.03998 14.898 2.20798 14.842C2.38531 14.786 2.57198 14.758 2.76798 14.758C3.15998 14.758 3.49598 14.87 3.77598 15.094C4.06531 15.318 4.20998 15.668 4.20998 16.144V22.318C4.20998 22.5793 4.25664 22.808 4.34998 23.004C4.45264 23.2 4.58331 23.3633 4.74198 23.494C4.90064 23.6247 5.07331 23.7227 5.25998 23.788C5.45598 23.8533 5.64731 23.886 5.83398 23.886C6.02064 23.886 6.20731 23.8533 6.39398 23.788C6.58998 23.7227 6.76731 23.6247 6.92598 23.494C7.08464 23.3633 7.21064 23.2 7.30398 23.004C7.40664 22.808 7.45798 22.5793 7.45798 22.318V16.144ZM18.4219 21.674V16.088C18.4219 15.6587 18.5479 15.332 18.7999 15.108C19.0613 14.8747 19.3599 14.758 19.6959 14.758C20.0319 14.758 20.3259 14.8747 20.5779 15.108C20.8393 15.332 20.9699 15.6587 20.9699 16.088V24.908C20.9699 25.1227 20.9279 25.3093 20.8439 25.468C20.7599 25.6267 20.6526 25.762 20.5219 25.874C20.3913 25.986 20.2419 26.0747 20.0739 26.14C19.9153 26.2053 19.7566 26.2427 19.5979 26.252C19.2619 26.28 18.9166 26.224 18.5619 26.084C18.2073 25.9533 17.9413 25.7387 17.7639 25.44L14.3479 19.392V26.084H11.7999V16.186C11.7999 15.9713 11.8419 15.78 11.9259 15.612C12.0099 15.444 12.1173 15.304 12.2479 15.192C12.3879 15.0707 12.5419 14.9773 12.7099 14.912C12.8779 14.8467 13.0413 14.8047 13.1999 14.786C13.5359 14.7487 13.8766 14.8 14.2219 14.94C14.5673 15.08 14.8286 15.2993 15.0059 15.598L18.4219 21.674ZM22.4357 16.158C22.4357 15.6727 22.5803 15.318 22.8697 15.094C23.159 14.87 23.4997 14.758 23.8917 14.758C24.2837 14.758 24.6243 14.87 24.9137 15.094C25.203 15.318 25.3477 15.6727 25.3477 16.158V26.084H22.4357V16.158ZM29.3317 26.084V17.292H27.1897C26.9843 17.292 26.807 17.2547 26.6577 17.18C26.5177 17.1053 26.401 17.0073 26.3077 16.886C26.2237 16.7647 26.1583 16.6293 26.1117 16.48C26.0743 16.3307 26.0557 16.186 26.0557 16.046C26.0557 15.906 26.0743 15.766 26.1117 15.626C26.1583 15.4767 26.2237 15.346 26.3077 15.234C26.401 15.1127 26.5177 15.0193 26.6577 14.954C26.807 14.8793 26.9843 14.842 27.1897 14.842H34.3857C34.591 14.842 34.7637 14.8793 34.9037 14.954C35.053 15.0193 35.1697 15.1127 35.2537 15.234C35.347 15.346 35.4123 15.4767 35.4497 15.626C35.4963 15.766 35.5197 15.906 35.5197 16.046C35.5197 16.186 35.4963 16.3307 35.4497 16.48C35.4123 16.6293 35.347 16.7647 35.2537 16.886C35.1603 17.0073 35.0437 17.1053 34.9037 17.18C34.7637 17.2547 34.591 17.292 34.3857 17.292H32.2437V26.084H29.3317ZM41.8726 21.954V26.084H39.0166V21.87L35.8386 16.872C35.6986 16.6573 35.6193 16.4473 35.6006 16.242C35.5819 16.0273 35.6053 15.8313 35.6706 15.654C35.7359 15.4767 35.8339 15.3227 35.9646 15.192C36.0953 15.052 36.2399 14.9493 36.3986 14.884C36.8466 14.6973 37.2619 14.6927 37.6446 14.87C38.0273 15.038 38.3399 15.3227 38.5826 15.724L40.5426 18.972L42.4326 15.724C42.5353 15.556 42.6519 15.402 42.7826 15.262C42.9133 15.1127 43.0579 14.996 43.2166 14.912C43.3846 14.828 43.5666 14.7767 43.7626 14.758C43.9586 14.7393 44.1733 14.7673 44.4066 14.842C44.5746 14.898 44.7286 14.9913 44.8686 15.122C45.0179 15.2433 45.1299 15.3973 45.2046 15.584C45.2793 15.7613 45.3073 15.962 45.2886 16.186C45.2793 16.41 45.1999 16.6387 45.0506 16.872L41.8726 21.954Z" fill="#A897C2"/>
</svg>
