<svg width="15" height="19" id="레이어_1" data-name="레이어 1" xmlns="http://www.w3.org/2000/svg" viewBox="0 0 595.28 595.28"><defs><style>.cls-1{fill:#6555a2;}</style></defs><title>double-next</title><path class="cls-1" d="M510.35,529.76a28.29,28.29,0,0,1-20.07-8.31L286.52,317.71a28.37,28.37,0,0,1,0-40.12L490.28,73.83A28.38,28.38,0,0,1,530.41,114L346.71,297.65l183.7,183.67a28.38,28.38,0,0,1-20.06,48.44Z"/><path class="cls-1" d="M289.61,529.76a28.28,28.28,0,0,1-20.06-8.31L65.79,317.71a28.37,28.37,0,0,1,0-40.12L269.55,73.83A28.37,28.37,0,0,1,309.67,114L126,297.65,309.67,481.32a28.38,28.38,0,0,1-20.06,48.44Z"/></svg>