<svg width="100" height="103" viewBox="0 0 100 103" fill="none" xmlns="http://www.w3.org/2000/svg">
<path fill-rule="evenodd" clip-rule="evenodd" d="M11.3157 50.9904C4.58412 54.5659 0 61.6488 0 69.8024C0 81.5589 9.53055 91.0895 21.2871 91.0895C26.9649 91.0895 32.1235 88.8666 35.9401 85.2436C37.6346 95.3049 46.3875 102.97 56.9306 102.97C68.6871 102.97 78.2177 93.4391 78.2177 81.6826C78.2177 79.0409 77.7365 76.5116 76.8569 74.1775C77.4686 74.2303 78.0876 74.2573 78.7129 74.2573C90.4694 74.2573 100 64.7268 100 52.9702C100 41.2137 90.4694 31.6832 78.7129 31.6832C77.9426 31.6832 77.1819 31.7241 76.4327 31.8038C78.1989 28.7016 79.2078 25.1122 79.2078 21.2871C79.2078 9.53055 69.6773 0 57.9207 0C47.3732 0 38.6173 7.67121 36.9281 17.7387C33.0389 13.5281 27.4709 10.8913 21.2871 10.8913C9.53055 10.8913 0 20.4219 0 32.1784C0 40.332 4.58412 47.4149 11.3157 50.9904Z" fill="#FCD8CD"/>
</svg>
