<svg width="100" height="103" viewBox="0 0 100 103" fill="none" xmlns="http://www.w3.org/2000/svg">
<path fill-rule="evenodd" clip-rule="evenodd" d="M11.3154 50.9907C4.58422 54.5663 0.000377537 61.649 0.000377537 69.8024C0.000377537 81.5589 9.53094 91.0895 21.2875 91.0895C26.9648 91.0895 32.1229 88.867 35.9394 85.2446C37.6337 95.3062 46.3868 102.971 56.9301 102.971C68.6867 102.971 78.2172 93.4408 78.2172 81.6842C78.2172 79.0424 77.736 76.5129 76.8564 74.1788C77.4682 74.2317 78.0874 74.2586 78.7129 74.2586C90.4694 74.2586 100 64.7281 100 52.9715C100 41.215 90.4694 31.6844 78.7129 31.6844C77.9424 31.6844 77.1815 31.7253 76.4322 31.8052C78.1989 28.7026 79.208 25.1127 79.208 21.2871C79.208 9.53056 69.6775 0 57.9209 0C47.3732 0 38.6172 7.67141 36.9281 17.7391C33.039 13.5285 27.471 10.8917 21.2871 10.8917C9.53056 10.8917 0 20.4223 0 32.1788C0 40.3323 4.58401 47.4151 11.3154 50.9907Z" fill="#FFEAB3"/>
</svg>
