<svg width="100" height="103" viewBox="0 0 100 103" fill="none" xmlns="http://www.w3.org/2000/svg">
<path fill-rule="evenodd" clip-rule="evenodd" d="M11.3155 50.9902C4.58413 54.5658 0.000144395 61.6486 0.000144395 69.8021C0.000144395 81.5586 9.53071 91.0892 21.2873 91.0892C26.965 91.0892 32.1236 88.8663 35.9402 85.2434C37.6345 95.305 46.3875 102.97 56.9309 102.97C68.6874 102.97 78.218 93.4394 78.218 81.6829C78.218 79.041 77.7367 76.5115 76.857 74.1773C77.4687 74.2301 78.0877 74.2571 78.713 74.2571C90.4695 74.2571 100 64.7265 100 52.97C100 41.2134 90.4695 31.6828 78.713 31.6828C77.9428 31.6828 77.1822 31.7237 76.4333 31.8035C78.1993 28.7013 79.2081 25.112 79.2081 21.2871C79.2081 9.53057 69.6775 0 57.921 0C47.3734 0 38.6176 7.67119 36.9283 17.7387C33.0391 13.528 27.4711 10.8911 21.2871 10.8911C9.53057 10.8911 0 20.4217 0 32.1782C0 40.3318 4.58406 47.4146 11.3155 50.9902Z" fill="#A7D8F3"/>
</svg>
