<svg width="10" height="9" viewBox="0 0 10 9" fill="none" xmlns="http://www.w3.org/2000/svg">
<path fill-rule="evenodd" clip-rule="evenodd" d="M4.99277 2.73756C4.98228 1.22367 3.86864 0 2.49642 0C1.11769 0 0 1.23531 0 2.75914C0 3.5707 0.317014 4.30041 0.821641 4.80528L4.26384 8.6138C4.66131 9.05356 5.3519 9.05302 5.74867 8.61262L9.21019 4.77053C9.2528 4.72643 9.294 4.6807 9.33372 4.63343L9.34192 4.62432L9.34149 4.62413C9.75041 4.13304 10 3.47822 10 2.75914C10 1.23531 8.87911 0 7.49642 0C6.12029 0 5.00348 1.22363 4.99292 2.7375L4.99277 2.73756Z" fill="#63579D"/>
</svg>
