<svg width="17" height="15" viewBox="0 0 17 15" fill="none" xmlns="http://www.w3.org/2000/svg">
<path d="M14.5669 8.02566L14.2071 7.67842L14.2012 7.6846L14.1954 7.69099L14.5669 8.02566ZM9.11657 14.0752L9.48804 14.4099L9.48804 14.4099L9.11657 14.0752ZM7.63174 14.0764L8.00269 13.7411L8.00269 13.7411L7.63174 14.0764ZM2.20991 8.07754L2.58085 7.74228L2.57245 7.73298L2.56359 7.72411L2.20991 8.07754ZM8.35401 5.03223L7.85403 5.0357L7.85926 5.79079L8.55239 5.4912L8.35401 5.03223ZM8.35414 5.03218L8.55252 5.49114L8.85186 5.36176L8.85413 5.03566L8.35414 5.03218ZM14.7593 7.81102L14.3751 7.49108L13.9521 7.99901L14.556 8.2678L14.7593 7.81102ZM14.76 7.81132L15.1315 8.146L15.5923 7.63451L14.9633 7.35453L14.76 7.81132ZM14.7469 7.82581L14.3755 7.49113L14.3697 7.49748L14.3642 7.50401L14.7469 7.82581ZM14.1954 7.69099L8.7451 13.7405L9.48804 14.4099L14.9383 8.36034L14.1954 7.69099ZM8.7451 13.7405C8.54671 13.9607 8.20142 13.961 8.00269 13.7411L7.2608 14.4116C7.857 15.0713 8.89289 15.0705 9.48804 14.4099L8.7451 13.7405ZM8.00269 13.7411L2.58085 7.74228L1.83897 8.4128L7.2608 14.4116L8.00269 13.7411ZM2.56359 7.72411C1.91586 7.07593 1.5 6.12908 1.5 5.06403H0.5C0.5 6.38938 1.01776 7.59191 1.85623 8.43097L2.56359 7.72411ZM1.5 5.06403C1.5 3.04743 2.96831 1.5 4.67706 1.5V0.5C2.32424 0.5 0.5 2.59164 0.5 5.06403H1.5ZM4.67706 1.5C6.37784 1.5 7.84014 3.03265 7.85403 5.0357L8.854 5.02877C8.83697 2.57209 7.01866 0.5 4.67706 0.5V1.5ZM8.55239 5.4912L8.55252 5.49114L8.15576 4.57322L8.15563 4.57327L8.55239 5.4912ZM8.85413 5.03566C8.86808 3.03403 10.3338 1.5 12.0416 1.5V0.5C9.69553 0.5 7.87128 2.57065 7.85416 5.02869L8.85413 5.03566ZM12.0416 1.5C13.7575 1.5 15.2292 3.04883 15.2292 5.06403H16.2292C16.2292 2.59023 14.399 0.5 12.0416 0.5V1.5ZM15.2292 5.06403C15.2292 6.00717 14.902 6.85826 14.3751 7.49108L15.1435 8.13095C15.8212 7.31708 16.2292 6.23916 16.2292 5.06403H15.2292ZM14.556 8.2678L14.5566 8.2681L14.9633 7.35453L14.9626 7.35423L14.556 8.2678ZM14.3885 7.47664L14.3755 7.49113L15.1184 8.16049L15.1315 8.146L14.3885 7.47664ZM14.3642 7.50401C14.3136 7.5642 14.2612 7.62237 14.2071 7.67842L14.9266 8.37291C14.9967 8.30032 15.0644 8.22517 15.1296 8.14761L14.3642 7.50401Z" fill="#63579D"/>
</svg>
