<svg width="100" height="100" viewBox="0 0 100 100" fill="none" xmlns="http://www.w3.org/2000/svg">
<circle cx="50" cy="50" r="50" fill="#A897C2"/>
<path d="M22.8808 48.92C22.8808 47.88 23.0194 46.84 23.2968 45.8C23.6434 44.6907 24.1288 43.72 24.7528 42.888C25.4461 41.9867 26.3128 41.2933 27.3528 40.808C28.4621 40.2533 29.7794 39.976 31.3048 39.976H68.7448C70.2701 39.976 71.5528 40.2533 72.5928 40.808C73.7021 41.2933 74.5688 41.9867 75.1928 42.888C75.8861 43.72 76.3715 44.6907 76.6488 45.8C76.9955 46.84 77.1688 47.88 77.1688 48.92C77.1688 49.96 76.9955 51.0347 76.6488 52.144C76.3715 53.2533 75.8861 54.2587 75.1928 55.16C74.4994 56.0613 73.6328 56.7893 72.5928 57.344C71.5528 57.8987 70.2701 58.176 68.7448 58.176H31.3048C29.7794 58.176 28.4621 57.8987 27.3528 57.344C26.3128 56.7893 25.4461 56.0613 24.7528 55.16C24.1288 54.2587 23.6434 53.2533 23.2968 52.144C23.0194 51.0347 22.8808 49.96 22.8808 48.92Z" fill="white"/>
</svg>
