<svg width="100" height="100" viewBox="0 0 100 100" fill="none" xmlns="http://www.w3.org/2000/svg">
<circle cx="50" cy="50" r="50" fill="#A897C2"/>
<path d="M20.7988 48.92C20.7988 47.88 20.9374 46.84 21.2148 45.8C21.5614 44.76 22.0468 43.824 22.6708 42.992C23.3641 42.16 24.2308 41.5013 25.2708 41.016C26.3801 40.4613 27.6974 40.184 29.2228 40.184H40.4548V29.264C40.4548 25.8667 41.3908 23.3707 43.2628 21.776C45.2041 20.1813 47.4574 19.384 50.0228 19.384C52.5881 19.384 54.8068 20.1813 56.6788 21.776C58.6201 23.3707 59.5908 25.8667 59.5908 29.264V40.184H70.8228C72.3481 40.184 73.6308 40.4613 74.6708 41.016C75.7801 41.5013 76.6468 42.16 77.2708 42.992C77.9641 43.824 78.4494 44.76 78.7268 45.8C79.0734 46.84 79.2468 47.88 79.2468 48.92C79.2468 49.96 79.0734 51.0347 78.7268 52.144C78.4494 53.184 77.9641 54.1547 77.2708 55.056C76.5774 55.888 75.7108 56.5813 74.6708 57.136C73.6308 57.6907 72.3481 57.968 70.8228 57.968H59.5908V68.888C59.5908 72.2853 58.6201 74.7813 56.6788 76.376C54.8068 77.9707 52.5881 78.768 50.0228 78.768C47.4574 78.768 45.2041 77.9707 43.2628 76.376C41.3908 74.7813 40.4548 72.2853 40.4548 68.888V57.968H29.2228C27.6974 57.968 26.3801 57.6907 25.2708 57.136C24.2308 56.5813 23.3641 55.888 22.6708 55.056C22.0468 54.1547 21.5614 53.184 21.2148 52.144C20.9374 51.0347 20.7988 49.96 20.7988 48.92Z" fill="white"/>
</svg>
