<svg width="16" height="16" viewBox="0 0 16 16" fill="none" xmlns="http://www.w3.org/2000/svg">
<path fill-rule="evenodd" clip-rule="evenodd" d="M8.22519 0.0478359C7.48867 -0.150468 6.73084 0.28584 6.53254 1.02236L6.39618 1.5288L3.13976 7.02285C3.04827 7.1772 3 7.35332 3 7.53274V14.1358C3 14.6881 3.44772 15.1358 4 15.1358H6.9175C6.91816 15.1358 6.91881 15.1358 6.91947 15.1358H11.5569C12.4185 15.1358 13.1833 14.5839 13.4549 13.7662L15.1965 8.52259C15.6054 7.29151 14.7523 6.00291 13.4593 5.89864L8.46863 5.49617L8.55519 4.13429L9.19971 1.74048C9.39802 1.00396 8.96171 0.24614 8.22519 0.0478359ZM1.30218 6.85076C0.583008 6.85076 0 7.43377 0 8.15295V14.0128C0 14.732 0.583008 15.315 1.30218 15.315C2.02136 15.315 2.60437 14.732 2.60437 14.0128V8.15295C2.60437 7.43377 2.02136 6.85076 1.30218 6.85076Z" fill="#63579D"/>
</svg>
