<svg width="16" height="16" viewBox="0 0 16 16" fill="none" xmlns="http://www.w3.org/2000/svg">
<mask id="path-1-inside-1" fill="white">
<path fill-rule="evenodd" clip-rule="evenodd" d="M8.22519 0.0478359C7.48867 -0.150468 6.73084 0.28584 6.53254 1.02236L6.39618 1.5288L3.13976 7.02285C3.04827 7.1772 3 7.35332 3 7.53274V14.1358C3 14.6881 3.44772 15.1358 4 15.1358H6.9175C6.91816 15.1358 6.91881 15.1358 6.91947 15.1358H11.5569C12.4185 15.1358 13.1833 14.5839 13.4549 13.7662L15.1965 8.52259C15.6054 7.29151 14.7523 6.00291 13.4593 5.89864L8.46863 5.49617L8.55519 4.13429L9.19971 1.74048C9.39802 1.00396 8.96171 0.24614 8.22519 0.0478359ZM1.30218 6.85076C0.583008 6.85076 0 7.43377 0 8.15295V14.0128C0 14.732 0.583008 15.315 1.30218 15.315C2.02136 15.315 2.60437 14.732 2.60437 14.0128V8.15295C2.60437 7.43377 2.02136 6.85076 1.30218 6.85076Z"/>
</mask>
<path d="M6.53254 1.02236L7.49815 1.28235V1.28235L6.53254 1.02236ZM8.22519 0.0478359L7.9652 1.01345L8.22519 0.0478359ZM6.39618 1.5288L7.25643 2.03868L7.32621 1.92095L7.3618 1.78879L6.39618 1.5288ZM3.13976 7.02285L2.27951 6.51297L2.27951 6.51297L3.13976 7.02285ZM13.4549 13.7662L14.4039 14.0814L13.4549 13.7662ZM15.1965 8.52259L14.2475 8.20738L15.1965 8.52259ZM13.4593 5.89864L13.5396 4.90188L13.4593 5.89864ZM8.46863 5.49617L7.47065 5.43274L7.40829 6.4139L8.38825 6.49293L8.46863 5.49617ZM8.55519 4.13429L7.58958 3.87431L7.56355 3.97097L7.5572 4.07086L8.55519 4.13429ZM9.19971 1.74048L8.2341 1.4805V1.4805L9.19971 1.74048ZM7.49815 1.28235C7.55287 1.07912 7.76197 0.95873 7.9652 1.01345L8.48517 -0.917776C7.21536 -1.25967 5.90882 -0.50744 5.56693 0.762374L7.49815 1.28235ZM7.3618 1.78879L7.49815 1.28235L5.56693 0.762373L5.43057 1.26881L7.3618 1.78879ZM4 7.53274L7.25643 2.03868L5.53594 1.01892L2.27951 6.51297L4 7.53274ZM4 7.53274L4 7.53274L2.27951 6.51297C2.09654 6.82166 2 7.1739 2 7.53274H4ZM4 14.1358V7.53274H2V14.1358H4ZM4 14.1358H4H2C2 15.2404 2.89543 16.1358 4 16.1358V14.1358ZM6.9175 14.1358H4V16.1358H6.9175V14.1358ZM6.91947 14.1358C6.91829 14.1358 6.91724 14.1358 6.91703 14.1358C6.91658 14.1358 6.91698 14.1358 6.9175 14.1358V16.1358C6.91867 16.1358 6.91973 16.1358 6.91994 16.1358C6.92039 16.1358 6.91999 16.1358 6.91947 16.1358V14.1358ZM11.5569 14.1358H6.91947V16.1358H11.5569V14.1358ZM12.5059 13.451C12.3701 13.8599 11.9877 14.1358 11.5569 14.1358V16.1358C12.8493 16.1358 13.9965 15.308 14.4039 14.0814L12.5059 13.451ZM14.2475 8.20738L12.5059 13.451L14.4039 14.0814L16.1456 8.8378L14.2475 8.20738ZM13.3789 6.8954C14.0254 6.94754 14.452 7.59184 14.2475 8.20738L16.1456 8.8378C16.7589 6.99119 15.4792 5.05829 13.5396 4.90188L13.3789 6.8954ZM8.38825 6.49293L13.3789 6.8954L13.5396 4.90188L8.54902 4.49941L8.38825 6.49293ZM7.5572 4.07086L7.47065 5.43274L9.46662 5.5596L9.55318 4.19772L7.5572 4.07086ZM8.2341 1.4805L7.58958 3.87431L9.5208 4.39428L10.1653 2.00047L8.2341 1.4805ZM7.9652 1.01345C8.16843 1.06817 8.28882 1.27727 8.2341 1.4805L10.1653 2.00047C10.5072 0.730657 9.75498 -0.575886 8.48517 -0.917776L7.9652 1.01345ZM1 8.15295C1 7.98605 1.13529 7.85076 1.30218 7.85076V5.85076C0.0307231 5.85076 -1 6.88148 -1 8.15295H1ZM1 14.0128V8.15295H-1V14.0128H1ZM1.30218 14.315C1.13529 14.315 1 14.1797 1 14.0128H-1C-1 15.2842 0.0307234 16.315 1.30218 16.315V14.315ZM1.60437 14.0128C1.60437 14.1797 1.46908 14.315 1.30218 14.315V16.315C2.57365 16.315 3.60437 15.2842 3.60437 14.0128H1.60437ZM1.60437 8.15295V14.0128H3.60437V8.15295H1.60437ZM1.30218 7.85076C1.46908 7.85076 1.60437 7.98605 1.60437 8.15295H3.60437C3.60437 6.88149 2.57365 5.85076 1.30218 5.85076V7.85076Z" fill="#63579D" mask="url(#path-1-inside-1)"/>
</svg>
