<svg width="19" height="19" viewBox="0 0 19 19" fill="none" xmlns="http://www.w3.org/2000/svg">
<path d="M10.3771 12.167V11.608C10.3771 10.932 10.6241 10.581 11.1961 10.035C12.0021 9.268 12.8081 8.644 12.8081 7.37V7.188C12.8081 5.771 11.7421 4.822 9.93505 4.822C8.66105 4.822 7.75105 5.29 7.07505 6.005L7.85505 6.902C8.40105 6.33 9.11605 5.966 9.96105 5.966C11.0401 5.966 11.5081 6.538 11.5081 7.201V7.37C11.5081 8.189 11.1831 8.41 10.2471 9.346C9.29805 10.295 9.05105 10.698 9.05105 11.569V12.167H10.3771ZM8.98605 14.871H10.4681V13.376H8.98605V14.871Z" fill="#A897C2"/>
<circle cx="9.5" cy="9.5" r="8.5" stroke="#A897C2" stroke-width="2"/>
</svg>
